<svg xmlns="http://www.w3.org/2000/svg" viewBox="0 0 1000 1000" width="1000" height="1000">
  <defs>
    <linearGradient id="aleaGrad" gradientUnits="userSpaceOnUse" x1="1790" y1="0" x2="20060" y2="0">
      <stop offset="0" stop-color="#8000FF"/>
      <stop offset="1" stop-color="#00FFFF"/>
    </linearGradient>
  </defs>
  <g transform="translate(500.0,500.0) scale(0.481664) translate(-1092.5,-411.5)">
    <g transform="translate(0,830) scale(0.1,-0.1)">
      <path d="M3842 6378 l-12 -12 0 -7 0 -7 -196 -418 -197 -419 -62 -135 -62 -135 -238 -505 -237 -505 -33 -70 -33 -70 -74 -160 -75 -160 -141 -300 -140 -300 -276 -590 -277 -589 5 -13 5 -13 544 0 544 0 15 18 15 17 163 370 163 370 30 65 29 65 53 120 52 120 145 325 146 325 25 55 24 55 37 83 37 82 29 68 28 67 92 205 92 205 45 105 45 105 52 120 53 120 58 133 58 132 8 6 9 5 29 -63 28 -64 8 -25 8 -24 22 -50 23 -50 37 -85 37 -85 113 -270 113 -270 50 -115 50 -115 76 -179 76 -179 0 -8 0 -9 -467 -2 -468 -3 -70 -160 -71 -160 -49 -110 -48 -110 -28 -60 -27 -60 -31 -74 -32 -75 5 -13 5 -13 827 -2 827 -3 33 -75 33 -75 140 -320 141 -320 27 -55 28 -55 568 -3 567 -2 0 13 0 14 -129 279 -128 279 -128 275 -127 275 -140 300 -141 300 -83 180 -82 180 -90 192 -91 192 -67 148 -67 148 -124 265 -125 265 -90 200 -90 200 -34 73 -34 72 -36 78 -37 77 -78 170 -79 170 -17 35 -18 35 -540 3 -541 2 -12 -12z" fill="url(#aleaGrad)"/>
      <path d="M7396 6381 l-6 -9 0 -2191 -1 -2192 6 -9 6 -10 1422 0 1422 0 21 6 20 5 47 92 46 92 30 55 29 55 90 180 90 180 46 88 46 89 0 14 0 14 -1117 2 -1118 3 -5 1760 -5 1760 -8 13 -8 12 -524 0 -524 0 -5 -9z" fill="url(#aleaGrad)"/>
      <path d="M11097 6383 l-7 -6 0 -2199 0 -2198 1483 0 1482 -1 118 -5 117 -6 24 6 25 6 210 414 211 413 0 12 0 11 -1297 2 -1298 3 -3 478 -2 477 1085 0 1085 0 0 420 0 420 -1082 2 -1083 3 -3 447 -2 448 1222 2 1223 3 0 425 0 425 -1751 3 -1751 2 -6 -7z" fill="url(#aleaGrad)"/>
      <path d="M16943 6378 l-8 -13 -76 -165 -76 -165 -165 -355 -166 -355 -147 -315 -147 -315 -221 -470 -220 -470 -72 -155 -72 -155 -221 -470 -220 -470 -45 -95 -44 -95 -77 -163 -76 -163 0 -7 0 -7 551 0 552 0 249 560 250 560 60 135 60 135 93 210 93 210 191 435 192 435 147 338 146 337 7 0 7 0 10 -27 10 -28 72 -170 72 -170 138 -330 138 -330 112 -265 112 -265 5 -12 5 -13 -468 -2 -468 -3 -99 -220 -99 -220 -83 -190 -84 -190 4 -3 3 -3 825 1 824 0 10 -12 10 -13 151 -345 151 -345 44 -100 45 -100 558 -2 559 -3 13 8 12 8 -216 465 -215 464 -24 50 -23 50 -177 380 -177 380 -33 70 -33 70 -140 300 -139 300 -98 210 -98 210 -102 220 -102 220 -111 240 -111 240 -123 265 -124 265 -536 3 -537 2 -8 -12z" fill="url(#aleaGrad)"/>
    </g>
  </g>
</svg>
